<svg width="22370" height="22370" viewBox="0 0 22370 22370" fill="none" xmlns="http://www.w3.org/2000/svg">
<path d="M15195.3 14275.1L15179.7 14121.4L15089.5 14130.7L15110 13970.6L15054 13962.1L15049.5 13920.6L15159 13909.1L15112 13459.8L15458.6 13423.3L15474.4 13573.3L15602.5 13559.8L15674.6 14224.8L15195.3 14275.1Z" fill="#67FFFF" fill-opacity="0.3"/>
<path d="M15602.5 13559.8L15474.4 13573.3L15458.6 13423.3L15112 13459.8L15159 13909.1L15049.5 13920.6L15054 13962.1L15110 13970.6L15089.5 14130.7L15179.7 14121.4L15195.3 14275.1L15674.6 14224.8M15602.5 13559.8L15602.4 13559.3M15602.5 13559.8L15674.6 14224.8M15674.6 14224.8L15674.6 14225.1M15674.6 14224.8L15673.9 14218.2L15674.1 14218.2" stroke="#9A8B8B" stroke-width="4" stroke-linecap="round" stroke-linejoin="round"/>
<g transform="translate(15149.1 14269.8) rotate(174)">
	<line id="entrance-dot-14-1" x1="-19.44" y1="144.41" x2="19.44" y2="144.41" stroke="#F47A49" stroke-width="23.33" stroke-linecap="round"/>
	<path id="scale_entrance-arrow-14-1" data-scale-origin="50% 140%" data-scale-factor="0.4" d="M-11.61 89.79 L15.18 89.79 C15.56 69.5 36.99 43.23 62.22 35.46 L56.94 24.37 C23.21 32.71 14.72 43.99 12.83 66.71 L5.56 66.71 L8.39 57.37 L8.39 -31.11 L-4.9 -31.11 L-4.9 57.37 L-2.07 66.71 L-9.34 66.71 C-11.23 43.99 -19.7 32.71 -53.45 24.37 L-58.73 35.46 C-33.4 43.23 -11.99 69.5 -11.61 89.79 Z" fill="#636363"/>
</g>
</svg>
